<svg xmlns="http://www.w3.org/2000/svg" xmlns:xlink="http://www.w3.org/1999/xlink" width="533.719" height="182.225" viewBox="-20 0 600 200" preserveAspectRatio="xMidYMid meet">
  <defs>
    <linearGradient id="linear-gradient" x2="0.649" y2="0.901" gradientUnits="objectBoundingBox">
      <stop offset="0" stop-color="#05d0ff"/>
      <stop offset="0.556" stop-color="#bd46fe"/>
      <stop offset="0.687" stop-color="#ff00a8"/>
      <stop offset="1" stop-color="#ff7a1a"/>
    </linearGradient>
    <linearGradient id="linear-gradient-2" x1="0.106" y1="0.398" x2="0.965" y2="0.247" gradientUnits="objectBoundingBox">
      <stop offset="0" stop-color="#fe8004"/>
      <stop offset="0.348" stop-color="#fc3d65"/>
      <stop offset="0.545" stop-color="#ed1cdf"/>
      <stop offset="0.734" stop-color="#ab21f7"/>
      <stop offset="0.892" stop-color="#680ec1"/>
      <stop offset="1" stop-color="#5e3ab1"/>
    </linearGradient>
  </defs>
  <!-- V Icon - aligned with text baseline -->
  <g transform="translate(0, 35)">
    <path d="M0,0 L30.33,75.721 Q33.088,81.4 41.359,81.4 T52.388,75.721 L82.719,0 C79.042,1.262 69.528,0.967 65.852,1.724 C62.176,2.734 60.221,6.184 58.383,9.465 L41.359,58.791 L21.935,9.384 C20.1,6.1 19.854,4.734 16.177,3.724 C12.5,2.967 3.676,3.262 0,0 Z" 
          fill="url(#linear-gradient)"/>
  </g>
  
  <!-- VividVerse Text - positioned closer to V (V ends at ~82.7, text starts at path x=96.6, so group at 83-96.6=-13.6) -->
  <g transform="translate(-10, 20)" style="isolation: isolate">
    <path d="M96.638,33.288a7.561,7.561,0,0,1-5.52-2.112,6.966,6.966,0,0,1-2.16-5.184A6.752,6.752,0,0,1,91.118,21a7.569,7.569,0,0,1,5.52-2.112,7.886,7.886,0,0,1,5.52,1.968,6.516,6.516,0,0,1,2.16,5.04,7.211,7.211,0,0,1-2.112,5.232A7.438,7.438,0,0,1,96.638,33.288ZM90.686,93V41.736h11.9V93Z" fill="#fff"/>
    <path d="M132.061,93,110.077,41.736h12.384l19.008,45.216h-6.144l19.584-45.216h11.52L144.445,93Z" fill="#fff"/>
    <path d="M179.964,33.288a7.561,7.561,0,0,1-5.52-2.112,6.965,6.965,0,0,1-2.16-5.184A6.752,6.752,0,0,1,174.444,21a7.569,7.569,0,0,1,5.52-2.112,7.885,7.885,0,0,1,5.52,1.968,6.516,6.516,0,0,1,2.16,5.04,7.211,7.211,0,0,1-2.112,5.232A7.436,7.436,0,0,1,179.964,33.288ZM174.012,93V41.736h11.9V93Z" fill="#fff"/>
    <path d="M223.451,93.672a27,27,0,0,1-13.3-3.264,23.621,23.621,0,0,1-9.264-9.168,27.561,27.561,0,0,1-3.36-13.872,27.637,27.637,0,0,1,3.36-13.824,23.545,23.545,0,0,1,9.264-9.216,27.023,27.023,0,0,1,13.3-3.264,23.3,23.3,0,0,1,11.52,2.832,19.967,19.967,0,0,1,8.064,8.64q2.975,5.81,2.976,14.832,0,8.928-2.88,14.784a19.442,19.442,0,0,1-7.92,8.688A23.6,23.6,0,0,1,223.451,93.672Zm1.44-10.176a15.161,15.161,0,0,0,7.728-1.968,14.582,14.582,0,0,0,5.472-5.664,17.125,17.125,0,0,0,2.064-8.5,16.792,16.792,0,0,0-2.064-8.5,14.768,14.768,0,0,0-5.472-5.568,16.157,16.157,0,0,0-15.456,0,14.754,14.754,0,0,0-5.472,5.568,16.782,16.782,0,0,0-2.064,8.5,17.114,17.114,0,0,0,2.064,8.5,14.568,14.568,0,0,0,5.472,5.664A15.158,15.158,0,0,0,224.891,83.5ZM240.539,93V80.9l.288-13.632-.96-13.632V21.768h12.1V93Z" fill="#fff"/>
    <path d="M288.635,93,259.258,25.8H272.8L299,86.568h-7.871L317.818,25.8H330.2L300.922,93Z" fill="#fff"/>
    <path d="M361.689,93.672a31.231,31.231,0,0,1-14.927-3.408,24.781,24.781,0,0,1-9.889-9.312,26.094,26.094,0,0,1-3.5-13.584,26.679,26.679,0,0,1,3.408-13.584,24.8,24.8,0,0,1,9.409-9.312,27.206,27.206,0,0,1,13.679-3.408,26.629,26.629,0,0,1,13.344,3.312,23.994,23.994,0,0,1,9.217,9.264,28.274,28.274,0,0,1,3.359,14.112q0,.672-.048,1.68t-.143,1.776H342.873V63.24h36.385l-4.8,2.5a15.077,15.077,0,0,0-1.775-7.728,13.38,13.38,0,0,0-5.137-5.28,15.173,15.173,0,0,0-7.68-1.872,15.781,15.781,0,0,0-7.728,1.872,12.721,12.721,0,0,0-5.232,5.328,16.81,16.81,0,0,0-1.824,7.968v1.92a15.93,15.93,0,0,0,2.064,8.16,14.058,14.058,0,0,0,5.9,5.52,19.3,19.3,0,0,0,8.928,1.968,20.054,20.054,0,0,0,7.777-1.44,18.2,18.2,0,0,0,6.142-4.224l6.53,7.488a22.967,22.967,0,0,1-8.785,6.144A31.711,31.711,0,0,1,361.689,93.672Z" fill="#fff"/>
    <path d="M397.4,93V41.736h11.424V55.848L407.48,51.72a15.915,15.915,0,0,1,7.2-7.92,25.054,25.054,0,0,1,12.192-2.736V52.488q-.673-.094-1.344-.144c-.449-.031-.865-.048-1.248-.048q-6.912,0-10.945,3.936t-4.031,12V93Z" fill="#fff"/>
    <path d="M453.561,93.672a44.735,44.735,0,0,1-12.385-1.68,33.168,33.168,0,0,1-9.407-4.08l4.608-9.12a31.56,31.56,0,0,0,8.256,3.6,34.638,34.638,0,0,0,9.7,1.392q5.566,0,8.112-1.488a4.551,4.551,0,0,0,2.544-4.08A3.584,3.584,0,0,0,463.256,75a13.463,13.463,0,0,0-4.512-1.68q-2.785-.576-6.191-1.056t-6.817-1.3a23.468,23.468,0,0,1-6.191-2.4,12.813,12.813,0,0,1-4.513-4.272,13.177,13.177,0,0,1-1.727-7.2,13.333,13.333,0,0,1,2.783-8.4,18.108,18.108,0,0,1,7.824-5.616,32.114,32.114,0,0,1,11.952-2.016,47.38,47.38,0,0,1,10.416,1.2,30.536,30.536,0,0,1,8.88,3.312l-4.7,9.12a24.47,24.47,0,0,0-7.3-2.928,34.708,34.708,0,0,0-7.391-.816q-5.378,0-8.064,1.584a4.667,4.667,0,0,0-2.688,4.08,3.876,3.876,0,0,0,1.727,3.456,13.382,13.382,0,0,0,4.512,1.776q2.782.625,6.192,1.152t6.769,1.344a26.96,26.96,0,0,1,6.191,2.3,11.96,11.96,0,0,1,4.561,4.176,12.773,12.773,0,0,1,1.727,7.008,12.944,12.944,0,0,1-2.832,8.4A18.429,18.429,0,0,1,465.9,91.7,34.532,34.532,0,0,1,453.561,93.672Z" fill="#fff"/>
    <path d="M511.16,93.672a31.238,31.238,0,0,1-14.928-3.408,24.791,24.791,0,0,1-9.888-9.312,26.1,26.1,0,0,1-3.5-13.584,26.689,26.689,0,0,1,3.408-13.584,24.8,24.8,0,0,1,9.408-9.312,27.213,27.213,0,0,1,13.68-3.408,26.632,26.632,0,0,1,13.344,3.312A23.978,23.978,0,0,1,531.9,53.64a28.253,28.253,0,0,1,3.36,14.112q0,.672-.047,1.68t-.145,1.776h-42.72V63.24h36.385l-4.8,2.5a15.076,15.076,0,0,0-1.776-7.728,13.388,13.388,0,0,0-5.135-5.28,15.182,15.182,0,0,0-7.681-1.872,15.784,15.784,0,0,0-7.728,1.872,12.718,12.718,0,0,0-5.231,5.328,16.81,16.81,0,0,0-1.824,7.968v1.92a15.93,15.93,0,0,0,2.063,8.16,14.061,14.061,0,0,0,5.9,5.52,19.3,19.3,0,0,0,8.927,1.968,20.054,20.054,0,0,0,7.777-1.44,18.2,18.2,0,0,0,6.143-4.224l6.528,7.488a22.964,22.964,0,0,1-8.784,6.144A31.711,31.711,0,0,1,511.16,93.672Z" fill="#fff"/>
  </g>
</svg>
